# xmcd
#
# Track frame offsets:
#	150
#	26092
#	43685
#	65316
#	83393
#	99159
#	118722
#	138174
#	155415
#	177572
#
# Disc length: 2585 seconds
#
# Revision: 1
# Processed by: cddbd v1.5.1PL0 Copyright (c) Steve Scherf et al.
# Submitted via: audiograbber 1.83.01
#
DISCID=760a170a
DTITLE=Joel Underwood - Eastern Divide
DYEAR=2005
DGENRE=
TTITLE0=Dance
TTITLE1=Eastern Divide
TTITLE2=Blue Man
TTITLE3=Talking to You
TTITLE4=Why Not Me
TTITLE5=Earthquakes
TTITLE6=Ballad of RP
TTITLE7=Happy Angel After
TTITLE8=Anger is Easy
TTITLE9=Haj
EXTD=
EXTT0=
EXTT1=
EXTT2=
EXTT3=
EXTT4=
EXTT5=
EXTT6=
EXTT7=
EXTT8=
EXTT9=
PLAYORDER=
